<svg width="903" height="575" viewBox="0 0 903 575" fill="none" xmlns="http://www.w3.org/2000/svg">
<path d="M856 571.66H570.77H590.53L770.93 569.57C804.28 566.67 827.78 533.96 815.11 502.99C812.92 497.64 815.21 496.15 812.5 490.99C784.14 437.59 734.97 394.09 679.25 368.82C680.63 368.56 682.02 368.37 683.44 368.18C673.064 362.983 662.377 358.431 651.44 354.55C645.64 352.48 639.77 350.61 633.91 348.97C605.1 340.85 566.17 344.56 553.91 376.46C543.6 403.24 557.29 435.59 583.04 447.32L629.29 465C628.9 464.42 628.55 463.84 628.19 463.23L668.41 478.6C669.209 479.159 669.817 479.948 670.154 480.863C670.491 481.777 670.54 482.773 670.295 483.716C670.05 484.659 669.523 485.505 668.784 486.14C668.045 486.775 667.13 487.17 666.16 487.27L568.48 497.94C554.4 499.36 536.77 505.25 526.39 514.94C518.82 521.94 512.44 531.47 512.5 543.53C506.116 544.011 499.77 544.903 493.5 546.2C483.93 548.26 474.19 551.81 473.5 557.64C472.14 569.34 488.77 571.72 499.25 571.72L432.93 571.46C440.05 571.46 440.93 571.4 445.65 566.7C450.37 562 455.65 558.38 455.65 551.26L456.23 528.44C456.23 523.74 457.35 519.94 452.65 519.94H410.65C412.36 519.986 414.048 519.54 415.511 518.653C416.974 517.766 418.15 516.477 418.9 514.94C418.933 514.903 418.953 514.858 418.96 514.81C421.06 510.91 421.54 505.3 421.15 499.99L421.64 498.25L422.9 493.61L449.58 477.91C449.78 477.794 449.974 477.667 450.16 477.53C464.08 469.02 465.82 453.81 461.05 440.21C460.95 439.95 460.89 439.72 460.79 439.5C460.57 438.92 460.37 438.37 460.12 437.82C458.847 434.718 457.269 431.751 455.41 428.96C448.52 418.2 438.52 409.43 429.02 407.14C426.356 406.538 423.632 406.236 420.9 406.24C453.96 375.24 492.05 347.69 537.04 338.53C576.404 330.398 617.114 331.459 656 341.63C701.44 353.72 742.36 378.82 774.81 412.72C818.49 458.29 838.92 511.53 856 571.66Z" fill="#487360"/>
<path d="M411.599 434.65C410.031 437.737 407.465 440.204 404.319 441.65C401.632 443 398.787 444.008 395.849 444.65C391.009 445.46 389.299 442.4 386.209 439.4C384.448 437.697 382.421 436.292 380.209 435.24C378.883 434.589 377.43 434.24 375.954 434.217C374.477 434.195 373.014 434.5 371.669 435.11C370.759 435.515 369.985 436.176 369.442 437.012C368.899 437.848 368.61 438.823 368.609 439.82C368.809 443.49 373.869 446.39 376.729 447.91C380.463 449.674 384.344 451.106 388.329 452.19C398.099 455.19 381.829 461.44 378.409 461.83C371.094 462.82 363.669 462.645 356.409 461.31C358.494 465.966 360.092 470.825 361.179 475.81C362.309 480.58 363.629 486.32 362.699 491.12C361.569 496.76 357.759 500.95 353.059 503.79L334.789 427.57C341.526 424.361 348.853 422.578 356.311 422.334C363.769 422.09 371.197 423.389 378.129 426.15C380.441 427.002 382.949 427.173 385.354 426.641C387.76 426.109 389.962 424.897 391.699 423.15L393.569 421.34C396.173 420.773 398.887 420.989 401.369 421.96C405.799 423.63 413.999 429 411.599 434.65Z" fill="#2FEB98"/>
<path d="M430.361 519.88H354.921C354.158 526.996 350.791 533.579 345.467 538.362C340.143 543.146 333.238 545.791 326.081 545.79H72.4609C72.4768 552.649 75.2085 559.222 80.0585 564.072C84.9085 568.922 91.482 571.654 98.3409 571.67H430.341C437.2 571.646 443.772 568.913 448.625 564.065C453.478 559.218 456.219 552.649 456.251 545.79V528.39C456.251 526.133 455.354 523.968 453.758 522.372C452.162 520.776 449.998 519.88 447.741 519.88H430.361Z" stroke="white" stroke-width="4.83" stroke-miterlimit="10"/>
<path d="M313.861 350.7C316.089 353.77 317.69 357.25 318.571 360.94L354.311 509.94C355.1 513.174 355.307 516.523 354.921 519.83C354.158 526.946 350.791 533.529 345.467 538.313C340.143 543.096 333.238 545.741 326.081 545.74H67.7507C61.2283 545.736 54.897 543.537 49.7761 539.497C44.6553 535.458 41.043 529.812 39.5207 523.47L3.8207 374.47C2.78955 370.202 2.74114 365.755 3.67912 361.465C4.61711 357.175 6.517 353.155 9.23547 349.706C11.9539 346.258 15.42 343.472 19.3722 341.558C23.3245 339.645 27.6596 338.654 32.0507 338.66H290.341C294.584 338.654 298.776 339.583 302.618 341.383C306.461 343.182 309.859 345.807 312.571 349.07L313.861 350.7Z" stroke="white" stroke-width="4.83" stroke-miterlimit="10"/>
<path d="M188.533 483.053C203.245 478.414 210.944 461.251 205.731 444.717C200.518 428.183 184.366 418.54 169.655 423.178C154.944 427.817 147.244 444.98 152.457 461.514C157.67 478.048 173.822 487.691 188.533 483.053Z" fill="#B6D0D2"/>
<path d="M684.849 367.31C662.059 371.12 644.539 381.54 632.779 403.11C622.249 422.41 621.019 445.96 632.249 465.11L586.399 447.53C559.849 435.37 550.509 408.35 561.149 380.6C573.799 347.54 613.939 343.7 643.649 352.12C649.699 353.82 655.739 355.76 661.719 357.9C669.532 360.7 677.242 363.837 684.849 367.31Z" fill="#487360"/>
<path d="M150.881 338.68C169.071 315.175 194.154 297.945 222.621 289.4C218.829 279.214 215.82 268.754 213.621 258.11C190.001 143.23 263.871 30.9201 378.721 7.2301C493.571 -16.4599 605.921 57.3801 629.601 172.23C632.248 185.1 633.721 198.184 634.001 211.32C642.206 208.409 650.603 206.07 659.131 204.32C759.501 183.57 857.701 248.15 878.421 348.54C884.269 376.767 883.451 405.968 876.034 433.824C868.616 461.679 854.802 487.42 835.691 509" stroke="#B6D0D2" stroke-opacity="0.5" stroke-width="4.83" stroke-miterlimit="10"/>
<path d="M401.23 519.89H408.32C410.359 519.939 412.381 519.513 414.226 518.645C416.071 517.777 417.689 516.492 418.95 514.89C418.983 514.853 419.007 514.808 419.02 514.76C421.563 511.283 422.722 506.984 422.27 502.7L421.69 498.19L421.21 494.55L422.95 493.55L450.21 477.47L452.05 476.41C465.36 468.58 466.32 453.98 461.1 440.15C461.01 439.9 460.94 439.67 460.85 439.44C460.62 438.86 460.39 438.32 460.17 437.77C458.835 434.698 457.26 431.735 455.46 428.91C448.57 418.14 438.58 409.38 429.07 407.09C426.407 406.483 423.683 406.181 420.95 406.19C415.25 406.19 408.95 407.28 405.64 410.57C441 375.78 482.31 343.13 532 333C571.382 324.882 612.106 325.963 651 336.16C696.44 348.25 737.4 373.38 769.85 407.28C771.56 409.06 773.23 410.86 774.85 412.7C815.52 457.4 841.46 513.86 857.85 571.64" stroke="white" stroke-width="4.83" stroke-miterlimit="10"/>
<path d="M413.699 571.67H902.999" stroke="white" stroke-width="4.83" stroke-miterlimit="10"/>
<path d="M536.881 571.66H592.401" stroke="white" stroke-width="3.22" stroke-miterlimit="10"/>
<path d="M583.291 447.06C557.531 435.33 543.851 402.98 554.151 376.21C566.431 344.3 605.361 340.59 634.151 348.71C640.031 350.357 645.874 352.217 651.681 354.29C716.411 377.29 775.231 425.04 807.351 485.54C810.061 490.66 812.221 495.92 814.411 501.28C817.363 508.481 818.581 516.275 817.965 524.033C817.349 531.791 814.918 539.296 810.867 545.941C806.816 552.586 801.259 558.185 794.644 562.286C788.03 566.387 780.544 568.875 772.791 569.55L592.401 571.66H536.881C531.976 571.661 527.194 570.126 523.205 567.271C519.216 564.415 516.222 560.383 514.641 555.74C508.551 537.74 516.421 524.16 526.371 514.91C536.751 505.27 550.291 499.76 564.371 498.34L665.711 488.1C666.681 488 667.598 487.606 668.339 486.972C669.08 486.337 669.609 485.491 669.855 484.547C670.102 483.603 670.055 482.606 669.72 481.69C669.385 480.774 668.778 479.982 667.981 479.42L583.291 447.06Z" stroke="white" stroke-width="4.83" stroke-miterlimit="10"/>
<path d="M553.081 518C543.831 523.32 534.321 531.65 531.141 542.2C527.481 554.35 536.071 565.39 545.831 571.71" stroke="white" stroke-width="4.83" stroke-miterlimit="10"/>
<path d="M563.001 531.94C554.371 540.15 546.891 550.56 551.881 562.94C553.308 566.337 555.53 569.341 558.361 571.7" stroke="white" stroke-width="4.83" stroke-miterlimit="10"/>
<path d="M579.93 548C579.93 548 560.06 562.77 572.68 571.63" stroke="white" stroke-width="4.83" stroke-miterlimit="10"/>
<path d="M528.93 570.25L529.28 571.67H497.22C486.74 571.67 472.22 570.06 473.59 558.36C474.96 546.66 512.49 543.47 512.49 543.47" stroke="white" stroke-width="4.83" stroke-miterlimit="10"/>
<path d="M471.419 202.34L403.189 212.55L415.079 220.93L437.319 238.74C440.799 241.19 439.929 246.97 441.859 250.48C442.592 255.778 441.76 261.174 439.464 266.005C437.169 270.835 433.511 274.889 428.941 277.667C424.371 280.446 419.089 281.827 413.744 281.641C408.399 281.454 403.225 279.709 398.859 276.62L345.209 238.88C339.287 234.791 334.534 229.228 331.419 222.74C327.029 200.89 340.499 176.59 366.419 172.74L440.999 161.54L429.999 153L396.129 126.64C393.228 124.394 390.807 121.588 389.009 118.39C388.256 112.976 389.137 107.459 391.54 102.549C393.942 97.6388 397.757 93.558 402.494 90.83C407.231 88.1019 412.675 86.851 418.128 87.2377C423.581 87.6243 428.794 89.6308 433.099 93L493.519 140C498.46 143.795 502.455 148.682 505.189 154.28C509.309 175.4 496.129 198.63 471.419 202.34Z" fill="#2FEB98"/>
<path d="M421.22 494.54C421.22 494.54 419.14 476.24 412.09 469.79" stroke="white" stroke-width="4.83" stroke-miterlimit="10"/>
<path d="M334.09 428.85C340.897 425.506 348.331 423.627 355.91 423.334C363.488 423.041 371.045 424.341 378.09 427.15C380.404 428.004 382.916 428.175 385.325 427.644C387.734 427.112 389.94 425.899 391.68 424.15L405.61 410.51" stroke="white" stroke-width="4.83" stroke-miterlimit="10"/>
<path d="M378.369 506.59L389.999 511.82C390.258 511.927 390.536 511.978 390.816 511.97C391.096 511.963 391.371 511.896 391.624 511.776C391.876 511.655 392.101 511.483 392.283 511.27C392.464 511.057 392.6 510.808 392.679 510.54L394.509 506.4" stroke="white" stroke-width="4.83" stroke-miterlimit="10"/>
<path d="M380.269 483.49C381.244 485.727 381.582 488.19 381.247 490.607C380.912 493.025 379.916 495.302 378.369 497.19" stroke="white" stroke-width="3.22" stroke-miterlimit="10"/>
<path d="M406.65 519.88C408.48 517.17 408.47 510.62 408 507.99C407.7 506.32 404.89 505.72 404.59 507.4C403.77 512.09 398.48 519.3 393.59 519.88" stroke="white" stroke-width="4.83" stroke-miterlimit="10"/>
<path d="M383.17 502.2C391.416 502.2 398.1 495.516 398.1 487.27C398.1 479.024 391.416 472.34 383.17 472.34C374.925 472.34 368.24 479.024 368.24 487.27C368.24 495.516 374.925 502.2 383.17 502.2Z" stroke="white" stroke-width="4.83" stroke-miterlimit="10"/>
<path d="M378.169 501.33L375.509 508.81C373.663 508.152 371.704 507.864 369.746 507.963C367.787 508.062 365.868 508.546 364.096 509.387C362.325 510.229 360.737 511.411 359.424 512.866C358.11 514.322 357.096 516.022 356.439 517.87" stroke="white" stroke-width="4.83" stroke-miterlimit="10"/>
<path opacity="0.53" d="M383.169 499.91C390.15 499.91 395.809 494.251 395.809 487.27C395.809 480.289 390.15 474.63 383.169 474.63C376.188 474.63 370.529 480.289 370.529 487.27C370.529 494.251 376.188 499.91 383.169 499.91Z" fill="white"/>
<path d="M353 504.77C357.7 501.93 361.5 497.77 362.63 492.11C363.57 487.3 362.25 481.57 361.12 476.8C360.034 471.815 358.436 466.956 356.35 462.3C363.61 463.632 371.036 463.804 378.35 462.81C381.76 462.43 398.04 456.21 388.27 453.18C384.286 452.099 380.408 450.663 376.68 448.89C373.8 447.4 368.75 444.5 368.57 440.82C368.558 439.826 368.835 438.849 369.367 438.009C369.9 437.17 370.665 436.503 371.57 436.09C372.916 435.483 374.38 435.181 375.857 435.207C377.333 435.233 378.786 435.586 380.11 436.24C382.328 437.283 384.356 438.689 386.11 440.4C389.21 443.4 390.9 446.4 395.76 445.63C398.694 444.998 401.534 443.989 404.21 442.63C407.363 441.187 409.936 438.72 411.51 435.63C413.93 430 405.71 424.63 401.25 423.02C398.772 422.047 396.063 421.824 393.46 422.38" stroke="white" stroke-width="4.83" stroke-miterlimit="10"/>
<path d="M471.42 202.34L403.19 212.55L415.08 220.93L430.46 231.73C433.479 233.774 436.06 236.4 438.053 239.453C440.047 242.507 441.411 245.926 442.068 249.513C442.725 253.099 442.661 256.781 441.879 260.342C441.098 263.904 439.615 267.274 437.516 270.256C435.418 273.238 432.746 275.772 429.658 277.71C426.569 279.648 423.126 280.951 419.528 281.543C415.93 282.136 412.25 282.006 408.703 281.16C405.157 280.315 401.814 278.771 398.87 276.62L345.22 238.88C339.298 234.791 334.544 229.228 331.43 222.74C320.02 199.05 333.36 167.5 363.17 163.05L422.34 154.19L430 153L396.13 126.64C393.286 124.426 390.906 121.675 389.126 118.541C387.346 115.408 386.2 111.955 385.754 108.379C385.308 104.803 385.571 101.174 386.528 97.6999C387.485 94.2255 389.116 90.9736 391.33 88.1299C393.543 85.2861 396.295 82.9061 399.428 81.1259C402.562 79.3456 406.015 78.1999 409.591 77.7542C413.167 77.3084 416.795 77.5714 420.27 78.5281C423.744 79.4848 426.996 81.1164 429.84 83.3298L490.26 130.33C497.993 136.212 503.293 144.733 505.15 154.27C509.31 175.4 496.13 198.63 471.42 202.34Z" stroke="white" stroke-width="4.83" stroke-miterlimit="10"/>
<path d="M321.661 318.33L321.001 300.9L313.271 308.82C311.959 310.16 310.17 310.925 308.295 310.948C306.421 310.97 304.614 310.248 303.271 308.94V308.94C301.931 307.629 301.166 305.839 301.143 303.965C301.121 302.09 301.843 300.283 303.151 298.94L317.001 284.8C318.428 283.339 320.252 282.329 322.248 281.895C324.243 281.461 326.322 281.621 328.228 282.357C330.133 283.092 331.78 284.37 332.967 286.033C334.153 287.695 334.825 289.669 334.901 291.71L335.551 309.49L341.251 303.06C341.867 302.362 342.615 301.793 343.451 301.386C344.288 300.978 345.197 300.739 346.126 300.683C347.055 300.627 347.986 300.756 348.866 301.061C349.745 301.366 350.555 301.841 351.251 302.46V302.46C351.948 303.076 352.517 303.824 352.925 304.66C353.333 305.496 353.572 306.405 353.628 307.334C353.685 308.262 353.558 309.193 353.255 310.073C352.951 310.952 352.478 311.764 351.861 312.46L340.631 325.13C339.198 326.765 337.306 327.931 335.202 328.476C333.097 329.022 330.877 328.921 328.831 328.187C326.784 327.454 325.006 326.121 323.727 324.363C322.449 322.605 321.728 320.503 321.661 318.33V318.33Z" fill="#B6D0D2"/>
<path d="M379.6 349.77L387.83 347.93L383.38 344.93C382.626 344.422 382.104 343.636 381.928 342.744C381.752 341.852 381.936 340.927 382.44 340.17C382.948 339.416 383.735 338.894 384.627 338.719C385.52 338.545 386.445 338.732 387.2 339.24L395.14 344.55C395.963 345.099 396.606 345.879 396.99 346.791C397.374 347.702 397.482 348.707 397.3 349.68C397.117 350.652 396.654 351.55 395.966 352.261C395.278 352.972 394.396 353.466 393.43 353.68L385 355.58L388.57 357.73C388.955 357.962 389.291 358.268 389.557 358.63C389.824 358.992 390.017 359.403 390.125 359.839C390.232 360.276 390.253 360.73 390.185 361.174C390.118 361.619 389.963 362.045 389.73 362.43V362.43C389.261 363.207 388.503 363.767 387.622 363.986C386.741 364.206 385.809 364.067 385.03 363.6L378.03 359.37C377.13 358.832 376.412 358.036 375.97 357.085C375.528 356.133 375.382 355.071 375.551 354.036C375.72 353.001 376.197 352.041 376.919 351.28C377.641 350.519 378.575 349.993 379.6 349.77V349.77Z" fill="#B6D0D2"/>
<path d="M358.79 397.84L359.46 392.34L356.63 394.44C356.393 394.617 356.123 394.745 355.836 394.818C355.55 394.89 355.252 394.906 354.959 394.863C354.667 394.82 354.385 394.72 354.132 394.569C353.878 394.417 353.656 394.217 353.48 393.98V393.98C353.125 393.501 352.975 392.9 353.061 392.31C353.147 391.72 353.463 391.188 353.94 390.83L358.94 387.08C359.46 386.692 360.084 386.465 360.732 386.428C361.381 386.39 362.026 386.544 362.588 386.87C363.15 387.195 363.604 387.679 363.894 388.26C364.184 388.842 364.297 389.495 364.22 390.14L363.54 395.76L365.65 394.02C365.878 393.832 366.141 393.691 366.424 393.605C366.707 393.518 367.004 393.489 367.299 393.518C367.593 393.546 367.879 393.633 368.14 393.772C368.401 393.912 368.632 394.101 368.82 394.33V394.33C369.008 394.558 369.149 394.822 369.235 395.105C369.321 395.388 369.351 395.685 369.322 395.979C369.293 396.274 369.207 396.56 369.067 396.821C368.928 397.082 368.738 397.312 368.51 397.5L364.35 400.92C363.817 401.344 363.171 401.6 362.493 401.656C361.815 401.713 361.136 401.567 360.541 401.237C359.946 400.908 359.462 400.409 359.15 399.804C358.838 399.2 358.713 398.516 358.79 397.84V397.84Z" fill="#B6D0D2"/>
<path d="M684.85 368L684.43 368.71C684.111 368.51 683.776 368.337 683.43 368.19L684.85 368Z" fill="#487360"/>
</svg>
